PathFileType	4	(X/Y/Z)	/Users/niels/Desktop/University/Third Semester/Perception and Action/Exam/Gymnastics Motion Tracking/Code for Gym Tracking/Analyzed Data/Webcam_Backflip/id2_2_baseline_Sports2D/id2_2_baseline_Sports2D_px_person00.trc
DataRate	CameraRate	NumFrames	NumMarkers	Units	OrigDataRate	OrigDataStartFrame	OrigNumFrames
29.87551867219917	29.87551867219917	10	22	m	29.87551867219917	180	241
Frame#	Time	Hip			RHip			RKnee			RAnkle			RBigToe			RSmallToe			RHeel			LHip			LKnee			LAnkle			LBigToe			LSmallToe			LHeel			Neck			Head			Nose			RShoulder			RElbow			RWrist			LShoulder			LElbow			LWrist		
		X1	Y1	Z1	X2	Y2	Z2	X3	Y3	Z3	X4	Y4	Z4	X5	Y5	Z5	X6	Y6	Z6	X7	Y7	Z7	X8	Y8	Z8	X9	Y9	Z9	X10	Y10	Z10	X11	Y11	Z11	X12	Y12	Z12	X13	Y13	Z13	X14	Y14	Z14	X15	Y15	Z15	X16	Y16	Z16	X17	Y17	Z17	X18	Y18	Z18	X19	Y19	Z19	X20	Y20	Z20	X21	Y21	Z21	X22	Y22	Z22
180	6.025	0.8039838910617462	-0.5929273349889148	0.0	0.796004966178224	-0.5939106679484122	0.0	0.8019229624675714	-0.7038422821925672	0.0	0.7800441401957792	-0.8204723600809896	0.0	0.8216247088199469	-0.8401683599427133	0.0	0.8095447087671946	-0.8432501310054804	0.0	0.7711534178536457	-0.8335273316734525	0.0	0.8135638272715064	-0.5933365890195853	0.0	0.8268655874128511	-0.6981200599055519	0.0	0.8052233840951867	-0.8095374415644367	0.0	0.8475038504567732	-0.8237569634545672	0.0	0.8420282805788019	-0.8194116669306543	0.0	0.7999303765138214	-0.8223412238766054	0.0	0.8067213034960125	-0.43379340545572526	0.0	0.8308682263504671	-0.36246002976000113	0.0	0.8455355439246723	-0.4018739282570842	0.0	0.7911300622640519	-0.45622361790031807	0.0	0.7747569872678907	-0.5321103185873447	0.0	0.8052966698066036	-0.6048711513494833	0.0	0.8025475984880236	-0.4555865326579039	0.0	0.7906482923239785	-0.5296743791796954	0.0	0.8211623331392528	-0.5926072950033902	0.0
181	6.058472222222222	0.8042050015741347	-0.5987329328454349	0.0	0.7956736969340968	-0.5996636914435943	0.0	0.8053788608361648	-0.7084198633150061	0.0	0.7808955331396735	-0.824223103740755	0.0	0.8237875750625788	-0.846144658848868	0.0	0.8115145840356611	-0.8487505746644814	0.0	0.7715862884579556	-0.8366825754344056	0.0	0.8133183676014847	-0.5988501854055843	0.0	0.8305055073882764	-0.7026562028531426	0.0	0.8055302898795131	-0.8133940935451208	0.0	0.8482125013033389	-0.8274621277439068	0.0	0.842246006830553	-0.8226010146122081	0.0	0.8003358830840694	-0.8255788553590543	0.0	0.8070927205713487	-0.43963956864846176	0.0	0.8307345011579701	-0.36891210981080624	0.0	0.8457643737596819	-0.4076208809331329	0.0	0.7907428771319311	-0.4638298580552657	0.0	0.7772480260569098	-0.5423694534210329	0.0	0.8014779523857948	-0.61712403739986	0.0	0.8030271963788275	-0.46268277655267526	0.0	0.7926484703740335	-0.538071455392815	0.0	0.8177983334657929	-0.6030671316705013	0.0
182	6.091944444444445	0.804123352267318	-0.6015363589187307	0.0	0.7952569332488786	-0.6022180866781095	0.0	0.809504184325646	-0.7099870475688818	0.0	0.7815383419964985	-0.8252069980465829	0.0	0.8253879912200663	-0.848611535663672	0.0	0.8129910740248308	-0.8510337243346034	0.0	0.7716931796842661	-0.8372652327824075	0.0	0.8126024139917923	-0.6011619102441956	0.0	0.834277115589273	-0.7043616640433588	0.0	0.8057838896111389	-0.814275291350739	0.0	0.8486681738197848	-0.8280999011108664	0.0	0.8422811984334263	-0.8229568539365686	0.0	0.80051258173986	-0.8261337962525088	0.0	0.8072038012651146	-0.4428071655615439	0.0	0.8309098787386392	-0.3726469655272151	0.0	0.8459789836160383	-0.4108131863288919	0.0	0.7902785117828701	-0.4679625971631314	0.0	0.7787012728276393	-0.5474827164430295	0.0	0.7989194707459568	-0.6235249410003817	0.0	0.8033115521418535	-0.4667245268822584	0.0	0.793624762127416	-0.5423467137024202	0.0	0.8153160157500758	-0.6079735530118109	0.0
183	6.125416666666667	0.8039135504626497	-0.6013575213556329	0.0	0.7948840342972086	-0.6016982065754529	0.0	0.8139615685711414	-0.7085758034865951	0.0	0.7819240291147809	-0.8233028607562225	0.0	0.8259048312161377	-0.847177658801472	0.0	0.8134396531779826	-0.8497091211820812	0.0	0.7715085059137125	-0.8352680294544256	0.0	0.8117892183078739	-0.60043295315489	0.0	0.837805448123543	-0.7032486938262823	0.0	0.8059614344617057	-0.8120951478400715	0.0	0.8487023897136237	-0.8255588372376158	0.0	0.8420165421299567	-0.8205127546809743	0.0	0.8004341743995149	-0.8241116314895656	0.0	0.8071481642035269	-0.44315014418937565	0.0	0.8313975000787303	-0.37341310847607534	0.0	0.8461491887362601	-0.4112526537239996	0.0	0.7898457814768984	-0.46850653026114436	0.0	0.779117798242929	-0.5479866979408426	0.0	0.7977043734478579	-0.6248169342312455	0.0	0.8033847113559208	-0.4675385554917319	0.0	0.7938903714287593	-0.5427629651454332	0.0	0.8139256899871269	-0.6082924461820255	0.0
184	6.158888888888889	0.8038297223437162	-0.5984002565151207	0.0	0.7947502422271806	-0.5984305774969888	0.0	0.8183138975376272	-0.7045416490050349	0.0	0.7820910194262792	-0.8188058266525591	0.0	0.8253121334282825	-0.8422701490239397	0.0	0.8127568322525481	-0.8450932249445827	0.0	0.7711035860592913	-0.8310293691072232	0.0	0.8112503595573618	-0.5970150564420942	0.0	0.840674946761277	-0.6996550762565436	0.0	0.8060823429891568	-0.807223660451076	0.0	0.8481572914070233	-0.8204719461397587	0.0	0.8413546887415191	-0.8158310986960535	0.0	0.800215623763525	-0.8198771171639512	0.0	0.807014704284621	-0.4408282492537634	0.0	0.8321541649033154	-0.3712677985746796	0.0	0.8462565883960235	-0.4090528238890775	0.0	0.7894733189090123	-0.4657574810497973	0.0	0.7788452190096198	-0.544692599587107	0.0	0.7976457932098341	-0.621878058786356	0.0	0.8033308141611466	-0.4653052066682955	0.0	0.793869884182406	-0.5398189423434079	0.0	0.8135620626619777	-0.6050739806301884	0.0
185	6.192361111111111	0.804130384364458	-0.5930761781755173	0.0	0.7950775692788798	-0.5929351430527472	0.0	0.82210134857787	-0.6985214756216938	0.0	0.7820911148970567	-0.8123860554165461	0.0	0.8239784145997309	-0.8349610494057751	0.0	0.811256183556645	-0.8381237343952875	0.0	0.7705636307290955	-0.825152838776855	0.0	0.8112762027677779	-0.591427676474822	0.0	0.8426129605114115	-0.6941360068758203	0.0	0.806166965654297	-0.8004085886070679	0.0	0.8470554118322513	-0.8138989587040686	0.0	0.8403549369125571	-0.8097568293741425	0.0	0.7999636871192586	-0.8139621508572964	0.0	0.8068485981016584	-0.43621435211620124	0.0	0.8331084672542916	-0.36656529072776306	0.0	0.8463308114226926	-0.404605652707554	0.0	0.7891623707850626	-0.4603090337479068	0.0	0.7783413271323157	-0.5385496632253263	0.0	0.7984612873279088	-0.6157005002219393	0.0	0.8032410767971272	-0.4604732130643322	0.0	0.7939605431400949	-0.5342055975186059	0.0	0.8140586873784498	-0.599281205797	0.0
186	6.225833333333333	0.8049578345351031	-0.5860127186835977	0.0	0.7960008915546468	-0.585880671367915	0.0	0.8249560549630035	-0.6912840237535116	0.0	0.7819929618163337	-0.8048908246935458	0.0	0.8223780145715656	-0.8265272480094463	0.0	0.8094091041027272	-0.8299631725338174	0.0	0.7700172250114729	-0.8183262893243117	0.0	0.8120208146842821	-0.5843226891366491	0.0	0.8435524039847858	-0.6873555394216199	0.0	0.8062000404202204	-0.7925973664478025	0.0	0.8456881073519898	-0.8068415787300871	0.0	0.8392866296641023	-0.8030892133774371	0.0	0.7997078813437158	-0.8070303833800714	0.0	0.8066742444826345	-0.4298135506918741	0.0	0.8341499558426914	-0.3599022701482002	0.0	0.8464223571109096	-0.39847453423672086	0.0	0.7889126925804365	-0.45292801132206	0.0	0.7779726306943867	-0.5305345315677898	0.0	0.7999204419033781	-0.6072757786052638	0.0	0.8032327887334999	-0.4536708803185486	0.0	0.7944962255930047	-0.5267516529965204	0.0	0.8152997116348836	-0.5917497058243099	0.0
187	6.259305555555556	0.8062646704585652	-0.5779823424071129	0.0	0.7974818207003648	-0.5779915395357893	0.0	0.8266932370709611	-0.6835448222254642	0.0	0.7818950174555065	-0.7971042805179974	0.0	0.8208214272755825	-0.8180406700486442	0.0	0.8075602011403155	-0.8216078112414436	0.0	0.769630366431642	-0.8111922232350662	0.0	0.8134664866217379	-0.5764074467576713	0.0	0.8435195318528109	-0.679997772711974	0.0	0.8061437197830775	-0.7846968047944552	0.0	0.8443912935596298	-0.8000189990285752	0.0	0.8384482796442388	-0.7964628465913915	0.0	0.7994628027148614	-0.7998266763971794	0.0	0.8065330083936136	-0.42222077733223573	0.0	0.8351209789508603	-0.3519992712035659	0.0	0.8465520763596159	-0.3912706794953962	0.0	0.7887387834568015	-0.44443042012739575	0.0	0.7779397761536939	-0.5215754676426054	0.0	0.8018716146365384	-0.5975164759979181	0.0	0.8034450921751397	-0.4456164146592707	0.0	0.7957163061760951	-0.5183287602197326	0.0	0.8172591291541601	-0.5832186801132047	0.0
188	6.292777777777778	0.8078546288737032	-0.5697773932970602	0.0	0.7993233631863601	-0.5699580343210223	0.0	0.8273191588268922	-0.6758785893250129	0.0	0.7818646310392746	-0.7896266512581886	0.0	0.819384540979887	-0.8102113643508635	0.0	0.8058521924785595	-0.8137416048638311	0.0	0.769525681607076	-0.8042978180529755	0.0	0.8154338574340355	-0.5683640764202427	0.0	0.8425530949025584	-0.6726790322885534	0.0	0.8059874748738011	-0.7773703659120275	0.0	0.843306339020641	-0.7938904022650549	0.0	0.8379711654096605	-0.7903707967966848	0.0	0.7992685780992383	-0.7930270711833213	0.0	0.8064810310300564	-0.4140909367966087	0.0	0.8358736078385155	-0.3435906886173296	0.0	0.8467018603697538	-0.38359394532066643	0.0	0.7886999608369794	-0.43558062174271833	0.0	0.7783012491835662	-0.5124954953841376	0.0	0.8041924948321466	-0.5872801618970139	0.0	0.8039295119958026	-0.4370391778261353	0.0	0.7976909583750575	-0.5097299551789434	0.0	0.8199441776430884	-0.5743450481979319	0.0
189	6.32625	0.8094788373148486	-0.5620848797316461	0.0	0.8012457957500357	-0.5623611043861652	0.0	0.8269647873498824	-0.6687363803628534	0.0	0.7818956144046347	-0.7828963346540034	0.0	0.8180519659517412	-0.8034561466777582	0.0	0.8043559900930332	-0.806802833767608	0.0	0.769711539698493	-0.7980822243458449	0.0	0.8176243562626605	-0.5607784869752573	0.0	0.8407458295217252	-0.6658913527728371	0.0	0.8057717066385774	-0.7710335082410171	0.0	0.8424233237583117	-0.7887520286435779	0.0	0.8378276216979742	-0.7851885557840468	0.0	0.7991561580400185	-0.7871204375512658	0.0	0.8065564431900659	-0.40610089595579135	0.0	0.8363425202078933	-0.33536789571541603	0.0	0.8468516732199782	-0.3760241823752506	0.0	0.7888934007925976	-0.42703795703622555	0.0	0.7790160978255187	-0.5039583396975715	0.0	0.8067634710774862	-0.5773756542729893	0.0	0.804586246174633	-0.4286178104751434	0.0	0.8002533665663749	-0.5015875010160812	0.0	0.8232675670476477	-0.5657150655246932	0.0
